<svg width="123" height="46" viewBox="0 0 123 46" fill="none" xmlns="http://www.w3.org/2000/svg">
<path fill-rule="evenodd" clip-rule="evenodd" d="M3.99405 2.4043C4.99671 2.4043 5.80952 3.21711 5.80952 4.21977V16.6828L17.9808 11.3217C18.8983 10.9175 19.9698 11.3337 20.374 12.2513L21.2522 14.245C21.6564 15.1626 21.2402 16.2341 20.3226 16.6383L11.1011 20.7001C9.86267 21.2456 9.63488 22.9055 10.6806 23.7644L20.8403 32.1099C21.6151 32.7464 21.7272 33.8904 21.0908 34.6652L19.708 36.3486C19.0716 37.1234 17.9275 37.2355 17.1528 36.5991L5.80952 27.2815V35.0829C5.80952 36.0855 4.99671 36.8983 3.99405 36.8983H1.81548C0.812816 36.8983 0 36.0855 0 35.0829V21.1367V4.21977C0 3.21711 0.812816 2.4043 1.81548 2.4043H3.99405ZM109.325 31.4472C113.536 31.4472 116.95 28.0334 116.95 23.8222C116.95 19.611 113.536 16.1972 109.325 16.1972C105.114 16.1972 101.7 19.611 101.7 23.8222C101.7 28.0334 105.114 31.4472 109.325 31.4472ZM109.325 37.2567C116.745 37.2567 122.76 31.2419 122.76 23.8222C122.76 16.4025 116.745 10.3877 109.325 10.3877C101.905 10.3877 95.8906 16.4025 95.8906 23.8222C95.8906 31.2419 101.905 37.2567 109.325 37.2567ZM37.0478 31.4521C41.2542 31.4521 44.665 28.0461 44.6728 23.8415L44.6728 23.8127C44.665 19.6081 41.2542 16.2021 37.0478 16.2021C32.8366 16.2021 29.4228 19.6159 29.4228 23.8271C29.4228 28.0383 32.8366 31.4521 37.0478 31.4521ZM44.6728 12.7646C42.5066 11.2687 39.8795 10.3926 37.0478 10.3926C29.6281 10.3926 23.6133 16.4074 23.6133 23.8271C23.6133 31.2468 29.6281 37.2616 37.0478 37.2616C39.8795 37.2616 42.5066 36.3855 44.6728 34.8896V35.4415C44.6728 36.4441 45.4856 37.257 46.4883 37.257H48.6668C49.6695 37.257 50.4823 36.4441 50.4823 35.4415V23.8476L50.4823 23.8271L50.4823 23.8066V12.2034C50.4823 11.2007 49.6695 10.3879 48.6668 10.3879H46.4883C45.4856 10.3879 44.6728 11.2007 44.6728 12.2034V12.7646Z" fill="#F1EDE8"/>
<path fill-rule="evenodd" clip-rule="evenodd" d="M87.8721 0.904297C86.8695 0.904297 86.0566 1.71711 86.0566 2.71977V5.06003C86.0566 6.06269 86.8695 6.87551 87.8721 6.87551H90.2124C91.215 6.87551 92.0279 6.06269 92.0279 5.06003V2.71977C92.0279 1.71711 91.215 0.904297 90.2124 0.904297H87.8721ZM89.9192 9.99512C90.9218 9.99512 91.7347 10.8079 91.7347 11.8106V32.1375C91.7347 39.3566 85.8824 45.2089 78.6632 45.2089C71.4441 45.2089 65.5918 39.3566 65.5918 32.1375V30.1106C65.5918 29.1079 66.4046 28.2951 67.4073 28.2951H69.5858C70.5885 28.2951 71.4013 29.1079 71.4013 30.1106V32.1375C71.4013 36.1481 74.6526 39.3994 78.6632 39.3994C82.6739 39.3994 85.9251 36.1481 85.9251 32.1375V11.8106C85.9251 10.8079 86.7379 9.99512 87.7406 9.99512H89.9192ZM68.2626 15.8193C64.0515 15.8193 60.6376 19.2331 60.6376 23.4443V35.2647C60.6376 36.2673 59.8248 37.0802 58.8222 37.0802H56.6436C55.6409 37.0802 54.8281 36.2673 54.8281 35.2647V23.4443C54.8281 16.0246 60.843 10.0098 68.2626 10.0098C75.6823 10.0098 81.6972 16.0246 81.6972 23.4443V25.9663C81.6972 26.9689 80.8844 27.7818 79.8817 27.7818H77.7031C76.7005 27.7818 75.8877 26.9689 75.8877 25.9663V23.4443C75.8877 19.2331 72.4738 15.8193 68.2626 15.8193Z" fill="#FF6745"/>
</svg>
